<mxfile host="app.diagrams.net" modified="2023-04-24T04:14:23.833Z" agent="Mozilla/5.0 (Macintosh; Intel Mac OS X 10_15_7) AppleWebKit/537.36 (KHTML, like Gecko) Chrome/112.0.0.0 Safari/537.36" etag="t0a7wdgcBYNVDC-sBhpM" version="21.1.5" type="github">
  <diagram name="第 1 页" id="p8BG9lo1mxIQ2AK1LwqT">
    <mxGraphModel dx="1674" dy="907" grid="1" gridSize="10" guides="1" tooltips="1" connect="1" arrows="1" fold="1" page="1" pageScale="1" pageWidth="827" pageHeight="1169" math="0" shadow="0">
      <root>
        <mxCell id="0" />
        <mxCell id="1" parent="0" />
        <mxCell id="w9-ldvaxHDLmsX1voLl7-76" value="" style="edgeStyle=orthogonalEdgeStyle;rounded=0;orthogonalLoop=1;jettySize=auto;html=1;fontFamily=Helvetica;fontSize=12;fontColor=default;" edge="1" parent="1" source="w9-ldvaxHDLmsX1voLl7-1" target="w9-ldvaxHDLmsX1voLl7-7">
          <mxGeometry relative="1" as="geometry" />
        </mxCell>
        <mxCell id="w9-ldvaxHDLmsX1voLl7-1" value="&amp;nbsp;" style="rounded=0;whiteSpace=wrap;html=1;" vertex="1" parent="1">
          <mxGeometry x="40" y="160" width="770" height="70" as="geometry" />
        </mxCell>
        <mxCell id="w9-ldvaxHDLmsX1voLl7-4" value="nct_student" style="rounded=0;whiteSpace=wrap;html=1;" vertex="1" parent="1">
          <mxGeometry x="360" y="180" width="120" height="30" as="geometry" />
        </mxCell>
        <mxCell id="w9-ldvaxHDLmsX1voLl7-78" value="" style="edgeStyle=orthogonalEdgeStyle;rounded=0;orthogonalLoop=1;jettySize=auto;html=1;fontFamily=Helvetica;fontSize=12;fontColor=default;" edge="1" parent="1" source="w9-ldvaxHDLmsX1voLl7-7" target="w9-ldvaxHDLmsX1voLl7-14">
          <mxGeometry relative="1" as="geometry" />
        </mxCell>
        <mxCell id="w9-ldvaxHDLmsX1voLl7-7" value="网关&lt;br&gt;nct_gateway" style="rounded=0;whiteSpace=wrap;html=1;" vertex="1" parent="1">
          <mxGeometry x="365" y="280" width="120" height="40" as="geometry" />
        </mxCell>
        <mxCell id="w9-ldvaxHDLmsX1voLl7-73" style="edgeStyle=orthogonalEdgeStyle;rounded=0;orthogonalLoop=1;jettySize=auto;html=1;entryX=0.5;entryY=0;entryDx=0;entryDy=0;fontFamily=Helvetica;fontSize=12;fontColor=default;" edge="1" parent="1" source="w9-ldvaxHDLmsX1voLl7-13" target="w9-ldvaxHDLmsX1voLl7-15">
          <mxGeometry relative="1" as="geometry" />
        </mxCell>
        <mxCell id="w9-ldvaxHDLmsX1voLl7-13" value="" style="rounded=0;whiteSpace=wrap;html=1;" vertex="1" parent="1">
          <mxGeometry x="40" y="360" width="770" height="90" as="geometry" />
        </mxCell>
        <mxCell id="w9-ldvaxHDLmsX1voLl7-14" value="考生端api&lt;br&gt;nct_student_api" style="rounded=0;whiteSpace=wrap;html=1;" vertex="1" parent="1">
          <mxGeometry x="365" y="385" width="120" height="40" as="geometry" />
        </mxCell>
        <mxCell id="w9-ldvaxHDLmsX1voLl7-15" value="" style="rounded=0;whiteSpace=wrap;html=1;" vertex="1" parent="1">
          <mxGeometry x="40" y="540" width="770" height="95" as="geometry" />
        </mxCell>
        <mxCell id="w9-ldvaxHDLmsX1voLl7-23" value="&lt;font color=&quot;#ff6666&quot;&gt;Service层&lt;/font&gt;" style="text;html=1;strokeColor=none;fillColor=none;align=center;verticalAlign=middle;whiteSpace=wrap;rounded=0;" vertex="1" parent="1">
          <mxGeometry x="41" y="540" width="60" height="30" as="geometry" />
        </mxCell>
        <mxCell id="w9-ldvaxHDLmsX1voLl7-24" value="&lt;font color=&quot;#ff6666&quot;&gt;API层&lt;/font&gt;" style="text;html=1;strokeColor=none;fillColor=none;align=center;verticalAlign=middle;whiteSpace=wrap;rounded=0;" vertex="1" parent="1">
          <mxGeometry x="41" y="360" width="60" height="30" as="geometry" />
        </mxCell>
        <mxCell id="w9-ldvaxHDLmsX1voLl7-33" value="" style="rounded=0;whiteSpace=wrap;html=1;" vertex="1" parent="1">
          <mxGeometry x="40" y="690" width="760" height="130" as="geometry" />
        </mxCell>
        <mxCell id="w9-ldvaxHDLmsX1voLl7-34" value="" style="strokeWidth=2;html=1;shape=mxgraph.flowchart.database;whiteSpace=wrap;" vertex="1" parent="1">
          <mxGeometry x="90" y="710" width="60" height="60" as="geometry" />
        </mxCell>
        <mxCell id="w9-ldvaxHDLmsX1voLl7-35" value="&lt;font color=&quot;#ff6666&quot;&gt;存储层&lt;/font&gt;" style="text;html=1;strokeColor=none;fillColor=none;align=center;verticalAlign=middle;whiteSpace=wrap;rounded=0;" vertex="1" parent="1">
          <mxGeometry x="40" y="690" width="60" height="30" as="geometry" />
        </mxCell>
        <mxCell id="w9-ldvaxHDLmsX1voLl7-38" value="" style="edgeStyle=orthogonalEdgeStyle;rounded=0;orthogonalLoop=1;jettySize=auto;html=1;entryX=0.5;entryY=0;entryDx=0;entryDy=0;entryPerimeter=0;" edge="1" parent="1" source="w9-ldvaxHDLmsX1voLl7-37" target="w9-ldvaxHDLmsX1voLl7-34">
          <mxGeometry relative="1" as="geometry" />
        </mxCell>
        <mxCell id="w9-ldvaxHDLmsX1voLl7-37" value="用户服务&lt;br style=&quot;border-color: var(--border-color);&quot;&gt;nct-user-service" style="rounded=1;whiteSpace=wrap;html=1;" vertex="1" parent="1">
          <mxGeometry x="65" y="573.13" width="110" height="35" as="geometry" />
        </mxCell>
        <mxCell id="w9-ldvaxHDLmsX1voLl7-40" value="nct_user" style="text;html=1;strokeColor=none;fillColor=none;align=center;verticalAlign=middle;whiteSpace=wrap;rounded=0;" vertex="1" parent="1">
          <mxGeometry x="90" y="770" width="60" height="30" as="geometry" />
        </mxCell>
        <mxCell id="w9-ldvaxHDLmsX1voLl7-41" value="" style="strokeWidth=2;html=1;shape=mxgraph.flowchart.database;whiteSpace=wrap;" vertex="1" parent="1">
          <mxGeometry x="200" y="710" width="60" height="60" as="geometry" />
        </mxCell>
        <mxCell id="w9-ldvaxHDLmsX1voLl7-42" value="nct_examination&lt;br&gt;" style="text;html=1;strokeColor=none;fillColor=none;align=center;verticalAlign=middle;whiteSpace=wrap;rounded=0;" vertex="1" parent="1">
          <mxGeometry x="200" y="770" width="60" height="30" as="geometry" />
        </mxCell>
        <mxCell id="w9-ldvaxHDLmsX1voLl7-45" value="" style="edgeStyle=orthogonalEdgeStyle;rounded=0;orthogonalLoop=1;jettySize=auto;html=1;" edge="1" parent="1" source="w9-ldvaxHDLmsX1voLl7-44" target="w9-ldvaxHDLmsX1voLl7-41">
          <mxGeometry relative="1" as="geometry" />
        </mxCell>
        <mxCell id="w9-ldvaxHDLmsX1voLl7-48" value="" style="edgeStyle=orthogonalEdgeStyle;rounded=0;orthogonalLoop=1;jettySize=auto;html=1;" edge="1" parent="1" source="w9-ldvaxHDLmsX1voLl7-44" target="w9-ldvaxHDLmsX1voLl7-41">
          <mxGeometry relative="1" as="geometry" />
        </mxCell>
        <mxCell id="w9-ldvaxHDLmsX1voLl7-50" style="edgeStyle=orthogonalEdgeStyle;rounded=0;orthogonalLoop=1;jettySize=auto;html=1;" edge="1" parent="1" source="w9-ldvaxHDLmsX1voLl7-44" target="w9-ldvaxHDLmsX1voLl7-46">
          <mxGeometry relative="1" as="geometry" />
        </mxCell>
        <mxCell id="w9-ldvaxHDLmsX1voLl7-44" value="考试服务&lt;br style=&quot;border-color: var(--border-color);&quot;&gt;nct-examination-service" style="rounded=1;whiteSpace=wrap;html=1;" vertex="1" parent="1">
          <mxGeometry x="220" y="571.89" width="130" height="36.24" as="geometry" />
        </mxCell>
        <mxCell id="w9-ldvaxHDLmsX1voLl7-46" value="" style="strokeWidth=2;html=1;shape=mxgraph.flowchart.database;whiteSpace=wrap;" vertex="1" parent="1">
          <mxGeometry x="310" y="710" width="60" height="60" as="geometry" />
        </mxCell>
        <mxCell id="w9-ldvaxHDLmsX1voLl7-47" value="Redis" style="text;html=1;strokeColor=none;fillColor=none;align=center;verticalAlign=middle;whiteSpace=wrap;rounded=0;" vertex="1" parent="1">
          <mxGeometry x="310" y="770" width="60" height="30" as="geometry" />
        </mxCell>
        <mxCell id="w9-ldvaxHDLmsX1voLl7-55" style="edgeStyle=orthogonalEdgeStyle;rounded=0;orthogonalLoop=1;jettySize=auto;html=1;entryX=1;entryY=0.5;entryDx=0;entryDy=0;entryPerimeter=0;exitX=0.5;exitY=1;exitDx=0;exitDy=0;" edge="1" parent="1" source="w9-ldvaxHDLmsX1voLl7-51" target="w9-ldvaxHDLmsX1voLl7-46">
          <mxGeometry relative="1" as="geometry" />
        </mxCell>
        <mxCell id="w9-ldvaxHDLmsX1voLl7-51" value="认证授权&amp;nbsp;&lt;br style=&quot;border-color: var(--border-color);&quot;&gt;nct-oauth-service" style="rounded=1;whiteSpace=wrap;html=1;" vertex="1" parent="1">
          <mxGeometry x="380" y="571.13" width="120" height="38.87" as="geometry" />
        </mxCell>
        <mxCell id="w9-ldvaxHDLmsX1voLl7-56" value="" style="strokeWidth=2;html=1;shape=mxgraph.flowchart.database;whiteSpace=wrap;" vertex="1" parent="1">
          <mxGeometry x="560" y="710" width="60" height="60" as="geometry" />
        </mxCell>
        <mxCell id="w9-ldvaxHDLmsX1voLl7-57" value="" style="strokeWidth=2;html=1;shape=mxgraph.flowchart.database;whiteSpace=wrap;" vertex="1" parent="1">
          <mxGeometry x="710" y="710" width="60" height="60" as="geometry" />
        </mxCell>
        <mxCell id="w9-ldvaxHDLmsX1voLl7-58" value="nct_logs" style="text;html=1;strokeColor=none;fillColor=none;align=center;verticalAlign=middle;whiteSpace=wrap;rounded=0;" vertex="1" parent="1">
          <mxGeometry x="555" y="770" width="60" height="30" as="geometry" />
        </mxCell>
        <mxCell id="w9-ldvaxHDLmsX1voLl7-59" value="nct_market" style="text;html=1;strokeColor=none;fillColor=none;align=center;verticalAlign=middle;whiteSpace=wrap;rounded=0;" vertex="1" parent="1">
          <mxGeometry x="710" y="770" width="60" height="30" as="geometry" />
        </mxCell>
        <mxCell id="w9-ldvaxHDLmsX1voLl7-62" value="" style="edgeStyle=orthogonalEdgeStyle;rounded=0;orthogonalLoop=1;jettySize=auto;html=1;" edge="1" parent="1" source="w9-ldvaxHDLmsX1voLl7-60" target="w9-ldvaxHDLmsX1voLl7-56">
          <mxGeometry relative="1" as="geometry" />
        </mxCell>
        <mxCell id="w9-ldvaxHDLmsX1voLl7-60" value="日志服务&lt;br style=&quot;border-color: var(--border-color);&quot;&gt;nct-logs-service" style="rounded=1;whiteSpace=wrap;html=1;" vertex="1" parent="1">
          <mxGeometry x="530" y="570" width="120" height="40" as="geometry" />
        </mxCell>
        <mxCell id="w9-ldvaxHDLmsX1voLl7-63" style="edgeStyle=orthogonalEdgeStyle;rounded=0;orthogonalLoop=1;jettySize=auto;html=1;entryX=0.5;entryY=0;entryDx=0;entryDy=0;entryPerimeter=0;" edge="1" parent="1" source="w9-ldvaxHDLmsX1voLl7-61" target="w9-ldvaxHDLmsX1voLl7-57">
          <mxGeometry relative="1" as="geometry">
            <mxPoint x="740" y="650" as="targetPoint" />
          </mxGeometry>
        </mxCell>
        <mxCell id="w9-ldvaxHDLmsX1voLl7-61" value="营销服务&lt;br style=&quot;border-color: var(--border-color);&quot;&gt;nct-market-service" style="rounded=1;whiteSpace=wrap;html=1;" vertex="1" parent="1">
          <mxGeometry x="680" y="571.89" width="120" height="38.11" as="geometry" />
        </mxCell>
        <mxCell id="w9-ldvaxHDLmsX1voLl7-64" value="" style="rounded=0;whiteSpace=wrap;html=1;" vertex="1" parent="1">
          <mxGeometry x="40" y="860" width="760" height="100" as="geometry" />
        </mxCell>
        <mxCell id="w9-ldvaxHDLmsX1voLl7-66" value="&lt;font color=&quot;#ff6666&quot;&gt;中间件&lt;/font&gt;" style="text;html=1;strokeColor=none;fillColor=none;align=center;verticalAlign=middle;whiteSpace=wrap;rounded=0;" vertex="1" parent="1">
          <mxGeometry x="40" y="860" width="60" height="30" as="geometry" />
        </mxCell>
        <mxCell id="w9-ldvaxHDLmsX1voLl7-72" style="edgeStyle=orthogonalEdgeStyle;rounded=0;orthogonalLoop=1;jettySize=auto;html=1;" edge="1" parent="1" source="w9-ldvaxHDLmsX1voLl7-70" target="w9-ldvaxHDLmsX1voLl7-42">
          <mxGeometry relative="1" as="geometry" />
        </mxCell>
        <mxCell id="w9-ldvaxHDLmsX1voLl7-70" value="" style="sketch=0;outlineConnect=0;fontColor=#232F3E;gradientColor=none;fillColor=#B0084D;strokeColor=none;dashed=0;verticalLabelPosition=bottom;verticalAlign=top;align=center;html=1;fontSize=12;fontStyle=0;aspect=fixed;pointerEvents=1;shape=mxgraph.aws4.mq_broker;" vertex="1" parent="1">
          <mxGeometry x="101" y="885.5" width="49" height="49" as="geometry" />
        </mxCell>
        <mxCell id="w9-ldvaxHDLmsX1voLl7-71" value="RocketMq" style="text;html=1;strokeColor=none;fillColor=none;align=center;verticalAlign=middle;whiteSpace=wrap;rounded=0;" vertex="1" parent="1">
          <mxGeometry x="95.5" y="930" width="60" height="30" as="geometry" />
        </mxCell>
        <mxCell id="w9-ldvaxHDLmsX1voLl7-75" value="&lt;font color=&quot;#ff6666&quot;&gt;考生端&lt;/font&gt;" style="text;html=1;strokeColor=none;fillColor=none;align=center;verticalAlign=middle;whiteSpace=wrap;rounded=0;fontSize=12;fontFamily=Helvetica;fontColor=default;" vertex="1" parent="1">
          <mxGeometry x="36" y="160" width="60" height="30" as="geometry" />
        </mxCell>
      </root>
    </mxGraphModel>
  </diagram>
</mxfile>
